<svg width="24" height="24" viewBox="0 0 24 24" fill="none" xmlns="http://www.w3.org/2000/svg"><path d="M12 18.296a6.296 6.296 0 1 0 0-12.592 6.296 6.296 0 0 0 0 12.592Zm0-13.889a.73.73 0 0 0 .74-.74V2.74A.73.73 0 0 0 12 2a.73.73 0 0 0-.74.74v.927c0 .37.37.74.74.74Zm0 15.186a.73.73 0 0 0-.74.74v.926c0 .37.277.74.74.74.463 0 .74-.277.74-.74v-.926c0-.37-.37-.74-.74-.74Zm9.26-8.333h-.927a.73.73 0 0 0-.74.74c0 .463.277.74.74.74h.926A.73.73 0 0 0 22 12a.73.73 0 0 0-.74-.74Zm-17.593 0H2.74A.73.73 0 0 0 2 12c0 .463.278.74.74.74h.927a.73.73 0 0 0 .74-.74.73.73 0 0 0-.74-.74Zm14.351-6.297-.648.648a.727.727 0 0 0 0 1.019.707.707 0 0 0 .463.185.71.71 0 0 0 .463-.185l.648-.648a.727.727 0 0 0 0-1.019c-.277-.278-.648-.278-.925 0ZM5.611 17.37l-.648.648a.727.727 0 0 0 0 1.019.707.707 0 0 0 .463.185c.185 0 .37-.092.463-.185l.648-.648a.727.727 0 0 0 0-1.019c-.185-.277-.648-.277-.926 0Zm12.778 0a.727.727 0 0 0-1.019 0 .727.727 0 0 0 0 1.019l.648.648a.707.707 0 0 0 .463.185c.186 0 .37-.092.463-.185a.727.727 0 0 0 0-1.018l-.555-.649ZM5.611 6.63a.707.707 0 0 0 .463.185c.185 0 .37-.093.556-.185a.727.727 0 0 0 0-1.019l-.649-.648a.727.727 0 0 0-1.018 0 .727.727 0 0 0 0 1.019l.648.648Z" fill="#030D45"/></svg>